<svg id="Lag_1" data-name="Lag 1" xmlns="http://www.w3.org/2000/svg" viewBox="0 0 2399.21 619.2"><defs><style>.cls-1{fill:#cebdcf;}.cls-2{fill:#bda7bf;}.cls-3,.cls-7,.cls-8{fill:#fff;}.cls-4{fill:#9d7b9f;}.cls-5{fill:#ded3df;}.cls-6{fill:#d6c8d6;}.cls-7{fill-rule:evenodd;}.cls-8{font-size:250px;font-family:OpenSans-Semibold, Open Sans;font-weight:600;}</style></defs><rect id="Rectangle-path" class="cls-1" x="514.75" y="497.95" width="292.39" height="54.77"/><rect id="Rectangle-path-2" class="cls-2" x="222.88" y="398.34" width="400.99" height="54.77"/><rect id="Rectangle-path-3" class="cls-3" x="287.22" y="298.78" width="138.56" height="54.77"/><rect id="Rectangle-path-4" class="cls-4" x="475.32" y="298.78" width="64.29" height="54.77"/><rect id="Rectangle-path-5" class="cls-3" x="673.4" y="398.34" width="64.29" height="54.77"/><rect id="Rectangle-path-6" class="cls-4" x="787.17" y="398.34" width="212.83" height="54.77"/><rect id="Rectangle-path-7" class="cls-3" x="589.08" y="298.78" width="262.31" height="54.77"/><rect id="Rectangle-path-8" class="cls-5" x="623.87" y="199.17" width="163.3" height="54.77"/><rect id="Rectangle-path-9" class="cls-4" x="524.8" y="99.62" width="128.63" height="54.77"/><rect id="Rectangle-path-10" class="cls-3" x="702.96" y="99.62" width="197.97" height="54.77"/><rect id="Rectangle-path-11" class="cls-6" x="222.88" y="199.17" width="351.51" height="54.77"/><rect id="Rectangle-path-12" class="cls-5" x="425.78" width="361.38" height="54.77"/><rect id="Rectangle-path-13" class="cls-3" x="321.89" y="99.62" width="153.37" height="54.77"/><polygon id="Shape" class="cls-7" points="465.22 552.72 0 552.72 0 221.99 266.34 0 376.25 0 376.25 54.77 285.97 54.77 54.47 247.72 54.47 497.95 465.22 497.95 465.22 552.72"/><text class="cls-8" transform="translate(1307.72 405.55)">AppCMS</text><text x="-386.83" y="-223.64"/></svg>